chalakudy
polygon
76.32373527176321 10.324673019740715
76.32112138601178 10.323564450102637
76.31872158242976 10.321632795129773
76.316322028059   10.318144987652062
76.31632204391963 10.3153548084328
76.31567471267863 10.310343743208364
76.3156197728108  10.308304795696998
76.3172556401899  10.303045972627316
76.31853057644759 10.298778908488444
76.32082121943273 10.297705675129876
76.32158479588901 10.296417783093503
76.32185750563303 10.295559186652497
76.32703879513872 10.291963737994706
76.3285658882968  10.29191001673091
76.33112931642125 10.290407342820856
76.33516540709934 10.292017416890829
76.33745609688509 10.292393095495072
76.34728086640683 10.299354671369514
76.3481535117727  10.306652611945552
76.34723994469317 10.311696585212388
76.34794345433454 10.315416253780583
76.34603453570668 10.318260183641584
76.34467092860251 10.319279739035252
76.34450733384301 10.319977287514135
76.34167117381702 10.322552888347346
76.34085310964747 10.323840672633409
76.33883519854697 10.324699228687521
76.33790797733667 10.325021182230387
76.33708981507112 10.324806527939018
76.33550811101446 10.325074816958008
76.3353990295384  10.325557748318701
76.33441727555197 10.325665081368186
76.3335445982155  10.32512849885697
76.32689064327161 10.325289433542295
76.32569069242953 10.32518212722104
76.32373527176321 10.324673019740715
END
END
